<?xml version="1.0" standalone="no"?><!DOCTYPE svg PUBLIC "-//W3C//DTD SVG 1.1//EN" "http://www.w3.org/Graphics/SVG/1.1/DTD/svg11.dtd"><svg t="1637835043501" class="icon" viewBox="0 0 1024 1024" version="1.1" xmlns="http://www.w3.org/2000/svg" p-id="1384" data-spm-anchor-id="a313x.7781069.0.i4" xmlns:xlink="http://www.w3.org/1999/xlink" width="200" height="200"><defs><style type="text/css"></style></defs><path d="M256 512a32 32 0 0 1 32-32h448a32 32 0 1 1 0 64h-448A32.64 32.64 0 0 1 256 512z" fill="#2c2c2c" p-id="1385" data-spm-anchor-id="a313x.7781069.0.i2" class="selected"></path><path d="M480 288a32 32 0 1 1 64 0v448a32 32 0 1 1-64 0z" fill="#2c2c2c" p-id="1386" data-spm-anchor-id="a313x.7781069.0.i6" class="selected"></path><path d="M512 0a512 512 0 1 0 512 512 512 512 0 0 0-512-512z m0 960a448 448 0 1 1 448-448 448 448 0 0 1-448 448z" fill="#2c2c2c" p-id="1387" data-spm-anchor-id="a313x.7781069.0.i3" class="selected"></path></svg>