<?xml version="1.0" standalone="no"?><!DOCTYPE svg PUBLIC "-//W3C//DTD SVG 1.1//EN" "http://www.w3.org/Graphics/SVG/1.1/DTD/svg11.dtd"><svg t="1637746859192" class="icon" viewBox="0 0 1024 1024" version="1.1" xmlns="http://www.w3.org/2000/svg" p-id="2482" xmlns:xlink="http://www.w3.org/1999/xlink" width="200" height="200"><defs><style type="text/css"></style></defs><path d="M0 0h1024v1024H0z" fill="#FFFFFF" p-id="2483"></path><path d="M692.1 299.4c-2.7 0-5.4-1.1-7.4-3.2-3.7-4.1-3.5-10.4 0.6-14.1l83-76.1c4.1-3.7 10.4-3.5 14.1 0.6 3.7 4.1 3.5 10.4-0.6 14.1l-83 76.1c-1.9 1.7-4.3 2.6-6.7 2.6zM638.7 349.2c-2.7 0-5.4-1.1-7.4-3.2-3.7-4.1-3.5-10.4 0.6-14.1l16.1-14.8c4.1-3.7 10.4-3.5 14.1 0.6s3.5 10.4-0.6 14.1l-16.1 14.8c-1.9 1.7-4.3 2.6-6.7 2.6z" fill="#032D25" p-id="2484"></path><path d="M899.5 124.4C863.1 88 804.9 86.8 767 121.6L328.2 524.1c-22-1.2-44.2 1.4-65.1 8-27.9 8.7-53.8 24.3-74.6 45.2-20 20-37.5 49.1-52.1 86.5-11.7 30-21.7 66-28.9 104-6 31.7-9.9 64.1-10.9 91.3-1.7 43.3 4.2 53 9.8 58.6 5 5 13 10.1 44.3 10.1 4.3 0 9.1-0.1 14.3-0.3 27.2-1.1 59.6-5 91.3-10.9 38-7.2 73.9-17.1 104-28.9 37.5-14.6 66.6-32.2 86.5-52.1 36.9-36.9 56.1-88 53.2-139.6l402.5-439c34.7-38.1 33.4-96.3-3-132.6zM428.6 486.2l109.2 109.2-55.4 60.4-114.2-114.2 60.4-55.4z m-10.1 321c-28.8 28.8-85.7 53-160.2 68.1-56.3 11.4-103.3 13.7-121.6 12-1.7-18.3 0.6-65.3 12-121.6 15.1-74.5 39.3-131.4 68.1-160.2 16.6-16.5 36.2-28.4 58.3-35.3 19.1-6 39.6-7.8 59.6-5.5l124.7 124.7c5 43.2-10 86.8-40.9 117.8zM873 229.8L564.9 565.9 458.2 459.2l336-308.1c22.1-20.3 55.9-19.6 77.1 1.6 21.1 21.1 21.9 55 1.7 77.1z" fill="#032D25" p-id="2485"></path></svg>