<?xml version="1.0" standalone="no"?><!DOCTYPE svg PUBLIC "-//W3C//DTD SVG 1.1//EN" "http://www.w3.org/Graphics/SVG/1.1/DTD/svg11.dtd"><svg t="1637746882823" class="icon" viewBox="0 0 1024 1024" version="1.1" xmlns="http://www.w3.org/2000/svg" p-id="2631" xmlns:xlink="http://www.w3.org/1999/xlink" width="200" height="200"><defs><style type="text/css"></style></defs><path d="M0 0h1024v1024H0z" fill="#FFFFFF" p-id="2632"></path><path d="M915.6 395.6l-287.1-287c-15.6-15.6-41-15.6-56.6 0l-75.7 75.7-14.1-14.1c-7.8-7.8-20.5-7.8-28.3 0L179.4 444.5c-3.8 3.8-5.9 8.8-5.9 14.1s2.1 10.4 5.9 14.1l14.1 14.1-25.5 25.5c-45.9 45.9-71.2 106.9-71.2 171.8S122.1 810 168 856c45.9 45.9 106.9 71.2 171.8 71.2s125.9-25.3 171.8-71.2l25.5-25.5 14.1 14.1c3.8 3.8 8.8 5.9 14.1 5.9s10.4-2.1 14.1-5.9l274.4-274.4c7.8-7.8 7.8-20.5 0-28.3l-14.1-14.1 75.7-75.7c15.8-15.6 15.8-40.8 0.2-56.5z m-432 432.2c-79.2 79.2-208 79.2-287.1 0s-79.2-208 0-287.1l25.5-25.5 287.1 287.1-25.5 25.5z m82-25.7L221.9 458.5 468 212.4l343.7 343.7-246.1 246z m246.1-302.6l-287.1-287 75.7-75.7 287.1 287.1-75.7 75.6z" fill="#032D25" p-id="2633"></path><path d="M378.2 368.9c-2.6 0-5.1-1-7.1-2.9-3.9-3.9-3.9-10.2 0-14.1l80.6-80.6c3.9-3.9 10.2-3.9 14.1 0s3.9 10.2 0 14.1L385.2 366c-1.9 1.9-4.4 2.9-7 2.9zM318.2 428.9c-2.6 0-5.1-1-7.1-2.9-3.9-3.9-3.9-10.2 0-14.1L338 385c3.9-3.9 10.2-3.9 14.1 0s3.9 10.2 0 14.1L325.2 426c-1.9 1.9-4.4 2.9-7 2.9z" fill="#032D25" p-id="2634"></path></svg>