<?xml version="1.0" standalone="no"?><!DOCTYPE svg PUBLIC "-//W3C//DTD SVG 1.1//EN" "http://www.w3.org/Graphics/SVG/1.1/DTD/svg11.dtd"><svg t="1637751262776" class="icon" viewBox="0 0 1024 1024" version="1.1" xmlns="http://www.w3.org/2000/svg" p-id="12404" xmlns:xlink="http://www.w3.org/1999/xlink" width="200" height="200"><defs><style type="text/css"></style></defs><path d="M245.333333 42.666667H96a53.393333 53.393333 0 0 0-53.333333 53.333333v149.333333a53.393333 53.393333 0 0 0 53.333333 53.333334h149.333333a53.393333 53.393333 0 0 0 53.333334-53.333334V96a53.393333 53.393333 0 0 0-53.333334-53.333333z m10.666667 202.666666a10.666667 10.666667 0 0 1-10.666667 10.666667H96a10.666667 10.666667 0 0 1-10.666667-10.666667V96a10.666667 10.666667 0 0 1 10.666667-10.666667h149.333333a10.666667 10.666667 0 0 1 10.666667 10.666667zM928 42.666667h-149.333333a53.393333 53.393333 0 0 0-53.333334 53.333333v149.333333a53.393333 53.393333 0 0 0 53.333334 53.333334h149.333333a53.393333 53.393333 0 0 0 53.333333-53.333334V96a53.393333 53.393333 0 0 0-53.333333-53.333333z m10.666667 202.666666a10.666667 10.666667 0 0 1-10.666667 10.666667h-149.333333a10.666667 10.666667 0 0 1-10.666667-10.666667V96a10.666667 10.666667 0 0 1 10.666667-10.666667h149.333333a10.666667 10.666667 0 0 1 10.666667 10.666667zM586.666667 42.666667H437.333333a53.393333 53.393333 0 0 0-53.333333 53.333333v149.333333a53.393333 53.393333 0 0 0 53.333333 53.333334h149.333334a53.393333 53.393333 0 0 0 53.333333-53.333334V96a53.393333 53.393333 0 0 0-53.333333-53.333333z m10.666666 202.666666a10.666667 10.666667 0 0 1-10.666666 10.666667H437.333333a10.666667 10.666667 0 0 1-10.666666-10.666667V96a10.666667 10.666667 0 0 1 10.666666-10.666667h149.333334a10.666667 10.666667 0 0 1 10.666666 10.666667zM245.333333 384H96a53.393333 53.393333 0 0 0-53.333333 53.333333v149.333334a53.393333 53.393333 0 0 0 53.333333 53.333333h149.333333a53.393333 53.393333 0 0 0 53.333334-53.333333V437.333333a53.393333 53.393333 0 0 0-53.333334-53.333333z m10.666667 202.666667a10.666667 10.666667 0 0 1-10.666667 10.666666H96a10.666667 10.666667 0 0 1-10.666667-10.666666V437.333333a10.666667 10.666667 0 0 1 10.666667-10.666666h149.333333a10.666667 10.666667 0 0 1 10.666667 10.666666z m330.666667-202.666667H437.333333a53.393333 53.393333 0 0 0-53.333333 53.333333v149.333334a53.393333 53.393333 0 0 0 53.333333 53.333333h149.333334a53.393333 53.393333 0 0 0 53.333333-53.333333V437.333333a53.393333 53.393333 0 0 0-53.333333-53.333333z m10.666666 202.666667a10.666667 10.666667 0 0 1-10.666666 10.666666H437.333333a10.666667 10.666667 0 0 1-10.666666-10.666666V437.333333a10.666667 10.666667 0 0 1 10.666666-10.666666h149.333334a10.666667 10.666667 0 0 1 10.666666 10.666666z m330.666667-202.666667h-149.333333a53.393333 53.393333 0 0 0-53.333334 53.333333v149.333334a53.393333 53.393333 0 0 0 53.333334 53.333333h149.333333a53.393333 53.393333 0 0 0 53.333333-53.333333V437.333333a53.393333 53.393333 0 0 0-53.333333-53.333333z m10.666667 202.666667a10.666667 10.666667 0 0 1-10.666667 10.666666h-149.333333a10.666667 10.666667 0 0 1-10.666667-10.666666V437.333333a10.666667 10.666667 0 0 1 10.666667-10.666666h149.333333a10.666667 10.666667 0 0 1 10.666667 10.666666zM245.333333 725.333333H96a53.393333 53.393333 0 0 0-53.333333 53.333334v149.333333a53.393333 53.393333 0 0 0 53.333333 53.333333h149.333333a53.393333 53.393333 0 0 0 53.333334-53.333333v-149.333333a53.393333 53.393333 0 0 0-53.333334-53.333334z m10.666667 202.666667a10.666667 10.666667 0 0 1-10.666667 10.666667H96a10.666667 10.666667 0 0 1-10.666667-10.666667v-149.333333a10.666667 10.666667 0 0 1 10.666667-10.666667h149.333333a10.666667 10.666667 0 0 1 10.666667 10.666667z m672-202.666667h-149.333333a53.393333 53.393333 0 0 0-53.333334 53.333334v149.333333a53.393333 53.393333 0 0 0 53.333334 53.333333h149.333333a53.393333 53.393333 0 0 0 53.333333-53.333333v-149.333333a53.393333 53.393333 0 0 0-53.333333-53.333334z m10.666667 202.666667a10.666667 10.666667 0 0 1-10.666667 10.666667h-149.333333a10.666667 10.666667 0 0 1-10.666667-10.666667v-149.333333a10.666667 10.666667 0 0 1 10.666667-10.666667h149.333333a10.666667 10.666667 0 0 1 10.666667 10.666667z m-352-202.666667H437.333333a53.393333 53.393333 0 0 0-53.333333 53.333334v149.333333a53.393333 53.393333 0 0 0 53.333333 53.333333h149.333334a53.393333 53.393333 0 0 0 53.333333-53.333333v-149.333333a53.393333 53.393333 0 0 0-53.333333-53.333334z m10.666666 202.666667a10.666667 10.666667 0 0 1-10.666666 10.666667H437.333333a10.666667 10.666667 0 0 1-10.666666-10.666667v-149.333333a10.666667 10.666667 0 0 1 10.666666-10.666667h149.333334a10.666667 10.666667 0 0 1 10.666666 10.666667z" fill="#2c2c2c" p-id="12405" data-spm-anchor-id="a313x.7781069.0.i28" class="selected"></path></svg>