<?xml version="1.0" standalone="no"?><!DOCTYPE svg PUBLIC "-//W3C//DTD SVG 1.1//EN" "http://www.w3.org/Graphics/SVG/1.1/DTD/svg11.dtd"><svg t="1638441596806" class="icon" viewBox="0 0 1583 1024" version="1.1" xmlns="http://www.w3.org/2000/svg" p-id="34393" xmlns:xlink="http://www.w3.org/1999/xlink" width="309.1796875" height="200"><defs><style type="text/css"></style></defs><path d="M544.160427 81.824427c35.095893 18.274987 74.042027 59.460267 85.83168 99.464533 11.50976 39.007573-38.147413 72.246613-56.818347 105.396907-19.114667 34.01728-20.329813 99.36896-61.822293 111.02208-40.42752 11.3664-81.892693-33.163947-116.026027-50.947414-35.089067-18.274987-95.0272-29.47072-106.72128-69.50912-11.421013-38.980267-2.423467-97.150293 16.247467-130.33472 19.121493-33.983147 65.542827-76.4928 106.939733-88.132266 40.46848-11.332267 98.269867 5.297493 132.369067 23.04zM338.315947 446.68928c11.769173 39.963307-0.116053 75.776-19.98848 109.48608-19.2512 32.768-34.85696 91.497813-75.298134 102.823253-41.39008 11.63264-104.188587-1.938773-138.868053-20.794026-33.764693-18.500267-41.376427-71.830187-52.906667-110.83776-11.605333-40.004267-21.15584-84.118187-1.35168-117.725867 19.339947-32.863573 56.75008-65.993387 97.1776-77.400747 41.49248-11.557547 80.500053 18.295467 115.3024 37.1712 33.675947 18.39104 64.512 38.249813 75.933014 77.277867z m192.9216 19.61984c64.703147-17.134933 152.500907-10.001067 261.154133 68.32128 142.554453 102.550187 167.150933 192.136533 137.140907 257.221973-39.69024 86.002347-177.834667 138.89536-259.822934 161.962667-84.350293 23.6544-218.897067 44.864853-292.61824-14.9504-52.230827-42.3936-70.171307-125.303467-24.917333-275.162453 39.963307-132.205227 46.339413-162.269867 179.063467-197.393067zM679.458133 350.829227c-11.421013-39.028053 3.95264-71.850667 22.6304-104.973654 19.114667-34.01728 35.928747-79.598933 77.4144-91.272533 40.42752-11.373227 90.187093-2.648747 124.320427 15.086933 35.095893 18.281813 50.988373 60.416 62.696107 100.53632 11.496107 38.966613 33.9968 88.200533 15.325866 121.316694-19.02592 34.05824-64.928427 78.1312-106.41408 89.777493-40.434347 11.318613-85.374293-30.3104-119.6032-48.059733-35.0208-18.281813-64.580267-42.427733-76.36992-82.41152z" opacity=".997" p-id="34394" data-spm-anchor-id="a313x.7781069.0.i12" class="selected" fill="#707070"></path><path d="M1453.274453 280.364373a78.772907 78.772907 0 0 1-8.942933 52.913494c-9.147733 14.370133-32.0512 9.475413-47.049387 13.489493-15.38048 4.130133-35.908267 22.295893-50.05312 13.63968-13.789867-8.430933-10.56768-32.99328-13.74208-47.868587-3.2768-15.284907-15.045973-35.730773-5.625173-50.449066a87.476907 87.476907 0 0 1 44.4416-32.256c15.373653-4.11648 40.331947-2.778453 54.442667 5.850453 13.769387 8.430933 23.340373 29.81888 26.528426 44.680533z m-165.205333 44.05248a59.938133 59.938133 0 0 1-38.925653 25.238187c-15.03232 3.734187-37.1712 15.878827-50.93376 7.406933-14.1312-8.628907-25.893547-30.57664-28.8768-45.91616-2.8672-14.977707 11.700907-32.290133 20.862293-46.626133 9.4208-14.68416 20.64384-29.92128 36.072107-33.75104a67.82976 67.82976 0 0 1 48.592213 6.109867c14.117547 8.68352 14.813867 28.38528 17.8176 43.758933 2.860373 14.916267 4.560213 29.436587-4.614827 43.779413z m42.973867 61.160107c21.736107 13.796693 41.86112 41.117013 45.233493 94.603947 4.519253 70.150827-16.943787 102.618453-44.68736 112.41472-36.672853 12.950187-88.159573-11.8784-116.14208-28.972374-28.75392-17.626453-69.536427-50.3808-69.79584-88.562346-0.16384-27.067733 20.923733-55.72608 78.820693-85.162667 51.042987-25.941333 61.965653-32.62464 106.564267-4.32128z m73.40032 9.99424c9.168213-14.342827 23.22432-19.217067 38.229333-23.217493 15.38048-4.130133 33.764693-12.199253 47.909547-3.54304a65.058133 65.058133 0 0 1 26.938026 40.106666c3.263147 15.291733-5.707093 31.832747-15.1552 46.55104-9.13408 14.35648-18.6368 34.781867-33.634986 38.795947-15.373653 4.164267-40.67328 3.42016-54.797654-5.256533-13.78304-8.444587-12.34944-33.211733-15.537493-48.093867a57.890133 57.890133 0 0 1 6.055253-45.349547z" p-id="34395" data-spm-anchor-id="a313x.7781069.0.i13" class="selected" fill="#707070"></path></svg>