<?xml version="1.0" standalone="no"?><!DOCTYPE svg PUBLIC "-//W3C//DTD SVG 1.1//EN" "http://www.w3.org/Graphics/SVG/1.1/DTD/svg11.dtd"><svg t="1637746828500" class="icon" viewBox="0 0 1024 1024" version="1.1" xmlns="http://www.w3.org/2000/svg" p-id="2333" xmlns:xlink="http://www.w3.org/1999/xlink" width="200" height="200"><defs><style type="text/css"></style></defs><path d="M0 0h1024v1024H0z" fill="#FFFFFF" p-id="2334"></path><path d="M646.3 224.5c-2.6 0-5.1-1-7.1-2.9-3.9-3.9-3.9-10.2 0-14.1l4.6-4.6c3.9-3.9 10.2-3.9 14.1 0 3.9 3.9 3.9 10.2 0 14.1l-4.6 4.6c-1.9 1.9-4.4 2.9-7 2.9zM744 197.5c-2.6 0-5.1-1-7.1-2.9-13.5-13.5-34.8-15.6-50.5-5a9.99 9.99 0 0 1-13.9-2.7 9.99 9.99 0 0 1 2.7-13.9c23.7-16 55.6-12.9 75.9 7.4 3.9 3.9 3.9 10.2 0 14.1-2.1 2-4.6 3-7.1 3z" fill="#032D25" p-id="2335"></path><path d="M893.3 231.5L792.5 130.7c-46.8-46.7-122.9-46.7-169.7 0L128.4 625.1c-3.3 3.3-5.3 7.6-5.8 12.2L95.7 906.4c-0.6 6 1.5 11.9 5.8 16.1 3.8 3.8 8.9 5.9 14.1 5.9 0.7 0 1.3 0 2-0.1l269.1-26.9c4.6-0.5 8.9-2.5 12.2-5.8l494.4-494.4c22.7-22.6 35.2-52.7 35.2-84.7 0-32.2-12.5-62.3-35.2-85zM170.8 639.3l408-408 92.8 92.8-408 408-92.8-92.8z m-12.5 44.1l182.3 182.3L138 886l20.3-202.6z m226.4 169.8l-92.9-92.9 408-408 92.9 92.9-408 408zM865 372.9L820.9 417 607 203.1l44.1-44.1c31.1-31.1 81.9-31.1 113.1 0L865 259.8c15.1 15.1 23.5 35.3 23.5 56.6 0 21.3-8.3 41.4-23.5 56.5z" fill="#032D25" p-id="2336"></path></svg>